<svg width="880" height="880" viewBox="0 0 880 880" fill="none" xmlns="http://www.w3.org/2000/svg">
<path d="M566.039 118.794L532.098 84.8529C520.577 73.3324 501.899 73.3324 490.378 84.8529L463.332 111.9C445.66 129.571 417.01 129.571 399.339 111.9C381.667 94.2285 353.017 94.2285 335.345 111.9L121.269 325.976C99.7899 347.455 99.7899 382.279 121.269 403.758L133.113 415.602C151.956 434.445 151.956 464.995 133.113 483.838C114.27 502.681 114.27 533.231 133.113 552.074L223.799 642.76C245.278 664.239 280.102 664.239 301.581 642.76L307.061 637.28C327.075 617.266 359.525 617.266 379.54 637.28C399.554 657.294 432.004 657.294 452.018 637.28L615.89 473.408C637.369 451.929 637.369 417.105 615.89 395.626L600.687 380.423C579.208 358.945 544.384 358.945 522.905 380.423L361.685 541.644C340.206 563.123 305.382 563.123 283.903 541.644L218.496 476.236C197.017 454.758 197.017 419.934 218.496 398.455L415.779 201.172C435.891 181.06 468.499 181.06 488.611 201.172C508.723 221.284 541.331 221.284 561.443 201.172L566.039 196.576C587.518 175.097 587.518 140.273 566.039 118.794Z" fill="white"/>
<path d="M313.955 761.2L347.897 795.142C359.417 806.662 378.095 806.662 389.616 795.142L416.663 768.095C434.334 750.424 462.985 750.424 480.656 768.095C498.327 785.766 526.978 785.766 544.649 768.095L758.726 554.018C780.204 532.539 780.204 497.715 758.726 476.236L746.882 464.392C728.039 445.55 728.039 414.999 746.882 396.157C765.724 377.314 765.724 346.764 746.882 327.921L656.195 237.234C634.716 215.756 599.892 215.756 578.413 237.234L572.933 242.714C552.919 262.729 520.469 262.729 500.455 242.714C480.441 222.7 447.991 222.7 427.976 242.714L264.104 406.586C242.626 428.065 242.626 462.889 264.104 484.368L279.307 499.571C300.786 521.05 335.61 521.05 357.089 499.571L518.309 338.351C539.788 316.872 574.612 316.872 596.091 338.351L661.498 403.758C682.977 425.237 682.977 460.061 661.498 481.54L464.216 678.823C444.104 698.935 411.496 698.935 391.384 678.823C371.272 658.711 338.664 658.711 318.552 678.823L313.955 683.419C292.477 704.898 292.477 739.722 313.955 761.2Z" fill="white"/>
</svg>
